<?xml version="1.0" standalone="no"?>
<!DOCTYPE svg PUBLIC "-//W3C//DTD SVG 20010904//EN"
 "http://www.w3.org/TR/2001/REC-SVG-20010904/DTD/svg10.dtd">
<svg version="1.0" xmlns="http://www.w3.org/2000/svg"
 width="335.000000pt" height="417.000000pt" viewBox="0 0 335.000000 417.000000"
 preserveAspectRatio="xMidYMid meet">

<g transform="translate(0.000000,417.000000) scale(0.100000,-0.100000)"
fill="#000000" stroke="none">
<path d="M946 4023 c-3 -4 -1 -12 5 -20 9 -10 6 -12 -19 -7 -32 7 -52 -10 -33
-29 20 -20 12 -25 -61 -36 -184 -29 -198 -41 -198 -172 0 -136 14 -186 66
-236 40 -39 44 -47 44 -91 l0 -49 -81 -26 c-119 -40 -221 -90 -289 -142 -105
-81 -245 -253 -336 -413 -41 -71 -44 -82 -44 -148 0 -69 1 -73 33 -101 54 -47
105 -75 222 -119 109 -42 110 -43 113 -77 4 -45 24 -62 92 -79 l55 -14 52
-410 c58 -457 57 -450 150 -1018 59 -366 65 -414 55 -453 -10 -37 -10 -48 5
-76 14 -24 18 -55 18 -129 0 -53 2 -99 5 -102 8 -8 367 -12 375 -4 10 10 -11
44 -66 104 -27 30 -49 60 -49 68 0 7 -3 28 -6 45 -5 23 -3 31 7 31 8 0 21 17
30 38 9 20 66 147 126 282 202 451 293 700 293 800 0 67 -22 177 -60 295 -38
119 -140 376 -183 460 -34 66 -35 75 -29 360 l2 140 45 -91 c46 -94 117 -184
166 -209 70 -37 160 -3 188 69 21 55 3 146 -64 325 -30 80 -55 150 -55 156 0
6 27 47 61 90 93 122 105 152 112 277 3 70 1 110 -6 117 -6 6 -47 11 -93 11
-105 0 -117 -10 -175 -143 l-43 -97 -35 34 c-46 43 -102 72 -221 110 -112 37
-120 41 -120 65 0 14 10 21 36 25 46 9 64 50 64 146 0 70 -23 197 -42 234 -7
13 -6 31 2 57 10 31 10 44 0 69 -18 42 -97 100 -114 83z m98 -246 c42 -144 44
-269 5 -308 -16 -16 -33 -19 -109 -19 -102 0 -120 -14 -31 -24 48 -5 61 -11
66 -27 16 -48 -32 -128 -79 -130 -91 -5 -126 38 -126 155 0 76 16 108 60 122
40 13 46 27 14 32 -47 7 -74 67 -47 101 16 19 22 21 46 12 50 -19 60 -15 54
24 -5 33 -3 36 56 79 34 24 65 42 69 40 4 -3 14 -28 22 -57z m626 -373 c0 -3
-9 -13 -21 -23 -14 -11 -23 -33 -26 -64 -3 -26 -7 -47 -10 -47 -2 0 -21 12
-43 26 -45 30 -46 30 -55 -7 -5 -19 0 -33 18 -55 l25 -30 -61 -68 c-60 -65
-63 -67 -104 -64 l-41 3 25 60 c56 136 106 241 121 258 12 13 31 17 94 17 43
0 78 -3 78 -6z m-3 -126 c-7 -88 -12 -97 -138 -270 l-42 -57 62 -167 c48 -127
64 -185 68 -239 5 -69 4 -73 -24 -105 -25 -27 -36 -32 -72 -32 -78 1 -139 59
-208 197 -55 109 -74 175 -66 224 8 40 11 44 58 62 28 10 56 19 63 19 9 0 12
-31 12 -122 0 -161 8 -228 27 -228 11 0 13 7 9 23 -9 38 -20 351 -12 380 5 22
79 119 175 230 14 17 13 20 -13 41 -43 34 -29 52 16 21 20 -14 41 -25 47 -25
5 0 13 26 17 58 3 31 8 60 11 65 12 21 15 -1 10 -75z m-1329 -391 l54 -50 -68
-68 c-65 -66 -71 -69 -116 -69 -26 0 -50 -4 -53 -10 -4 -6 14 -10 48 -10 49 0
65 -7 180 -75 l127 -76 0 -116 0 -116 -42 7 c-23 4 -50 14 -60 23 -25 22 -23
53 3 53 45 0 8 24 -91 60 -206 72 -310 142 -310 207 0 53 76 191 173 316 l29
37 36 -31 c21 -18 61 -54 90 -82z m156 -19 c4 -13 10 -88 13 -167 l6 -143 -24
14 c-13 9 -64 39 -112 68 l-88 52 93 98 c51 54 96 98 99 99 4 1 10 -9 13 -21z
m752 -685 c112 -245 214 -537 232 -669 13 -92 2 -158 -54 -312 -82 -226 -353
-844 -370 -842 -17 1 -213 135 -213 146 -1 6 69 215 154 464 85 250 155 461
155 469 0 7 -29 87 -65 176 -55 138 -81 222 -101 333 -6 28 -30 24 -27 -4 23
-210 43 -572 43 -784 0 -94 -1 -98 -97 -383 -83 -243 -96 -289 -83 -297 12 -7
12 -12 3 -21 -10 -10 -13 -9 -17 2 -4 11 -80 472 -147 889 -22 141 -115 900
-111 905 3 3 153 5 334 5 l329 0 35 -77z m-167 -620 l50 -121 -48 -139 -49
-138 -6 55 c-3 30 -8 150 -11 265 -4 116 -9 221 -11 235 -4 22 -3 22 10 -5 8
-16 38 -85 65 -152z m-134 -1172 c44 -31 81 -64 82 -72 15 -113 14 -111 64
-164 27 -29 49 -54 49 -56 0 -2 -38 -3 -86 -1 l-85 4 -42 55 c-23 30 -63 82
-89 114 -50 61 -55 76 -37 112 13 25 50 67 58 67 3 -1 42 -27 86 -59z m-67
-212 c64 -90 64 -91 1 -87 l-54 3 -3 73 c-2 39 1 72 5 72 4 0 27 -28 51 -61z"/>
<path d="M2757 3512 c-4 -5 -18 -53 -32 -107 -28 -108 -45 -235 -45 -339 0
-61 -2 -67 -17 -61 -168 72 -301 26 -345 -119 -8 -23 -13 -95 -13 -168 l0
-126 -45 -6 c-62 -8 -105 -37 -132 -88 -31 -60 -31 -204 2 -338 39 -162 146
-450 169 -458 18 -6 13 12 -33 125 -127 310 -170 583 -107 672 29 41 73 63
118 59 l36 -3 22 -90 c38 -152 103 -294 143 -310 22 -8 49 12 61 46 15 43 14
57 -9 132 -27 86 -90 179 -145 214 -53 34 -59 59 -53 220 3 92 7 115 28 153
14 24 40 55 59 67 46 31 135 31 210 0 l55 -22 13 -70 c36 -204 114 -370 204
-435 49 -35 81 -38 109 -10 16 16 20 33 20 89 0 60 -5 78 -40 147 -48 95 -117
176 -211 245 l-69 52 0 101 c0 111 19 244 50 351 11 39 16 73 11 78 -5 5 -11
5 -14 -1z m68 -653 c136 -127 209 -284 175 -373 -27 -71 -133 13 -200 158 -37
80 -80 227 -80 273 0 21 3 22 20 13 11 -6 49 -38 85 -71z m-378 -413 c65 -94
94 -226 57 -257 -14 -11 -19 -10 -37 11 -11 14 -30 48 -43 75 -26 57 -74 217
-74 247 0 20 1 19 32 -4 18 -14 47 -46 65 -72z"/>
<path d="M2687 1476 c-32 -30 -55 -74 -83 -161 l-22 -70 -152 -2 c-84 -1 -153
-3 -155 -5 -2 -2 -11 -96 -21 -210 l-18 -208 -62 0 -61 0 -6 44 c-10 71 -64
229 -92 266 -51 69 -92 76 -145 23 -41 -42 -71 -113 -103 -245 l-22 -87 -120
-3 -120 -3 -42 -360 c-23 -198 -42 -366 -42 -372 -1 -10 197 -13 943 -13 520
0 947 4 949 8 7 11 -80 1142 -88 1150 -4 4 -76 9 -162 12 l-155 5 -22 70 c-28
87 -46 123 -81 158 -35 35 -82 36 -118 3z m95 -16 c27 -21 63 -96 84 -172 l12
-48 -134 0 c-74 0 -134 4 -134 8 0 20 42 129 65 168 39 66 66 77 107 44z
m-216 -287 c-4 -27 -8 -55 -9 -63 -1 -8 3 -17 8 -20 6 -3 15 21 22 54 6 32 15
62 20 66 4 5 69 6 145 3 l136 -6 6 -36 c14 -77 18 -91 28 -91 7 0 9 22 4 65
l-7 65 146 0 145 0 0 -27 c0 -16 18 -266 40 -557 22 -291 39 -531 37 -533 -2
-2 -195 0 -428 4 l-424 8 -42 350 c-23 193 -42 353 -42 358 -1 4 -22 7 -47 7
l-47 0 6 48 c4 26 11 106 17 177 17 197 -3 175 156 175 l137 0 -7 -47z m-589
-35 c11 -13 28 -37 36 -54 16 -30 60 -183 70 -236 l4 -28 -159 0 -158 0 6 28
c30 137 76 254 113 291 27 27 62 27 88 -1z"/>
</g>
</svg>
