<?xml version="1.0" standalone="no"?>
<!DOCTYPE svg PUBLIC "-//W3C//DTD SVG 20010904//EN"
 "http://www.w3.org/TR/2001/REC-SVG-20010904/DTD/svg10.dtd">
<svg version="1.0" xmlns="http://www.w3.org/2000/svg"
 width="626.000000pt" height="527.000000pt" viewBox="0 0 626.000000 527.000000"
 preserveAspectRatio="xMidYMid meet">

<g transform="translate(0.000000,527.000000) scale(0.100000,-0.100000)"
fill="#000000" stroke="none">
<path d="M145 5087 c-3 -7 -4 -127 -3 -267 l3 -255 378 -3 378 -2 15 -38 c8
-20 19 -46 23 -57 5 -11 28 -69 50 -130 23 -60 53 -139 67 -175 47 -120 72
-184 109 -285 21 -55 43 -113 50 -130 7 -16 48 -122 90 -235 96 -255 154 -406
170 -445 6 -16 18 -46 25 -65 6 -19 16 -44 21 -55 5 -11 49 -128 99 -260 89
-233 109 -287 135 -350 7 -16 18 -46 25 -65 7 -19 18 -48 25 -65 6 -16 18 -46
25 -65 7 -19 18 -48 25 -65 7 -16 36 -93 65 -170 28 -77 58 -153 65 -170 6
-16 22 -57 34 -90 31 -82 51 -134 66 -170 7 -16 20 -50 28 -75 8 -25 21 -58
27 -75 44 -108 60 -155 60 -178 0 -12 7 -30 14 -40 13 -16 41 -19 278 -27 144
-5 403 -10 573 -10 171 0 452 -5 625 -10 288 -9 1678 -34 1915 -35 83 0 100 3
98 15 -3 19 -18 79 -38 155 -9 33 -20 75 -25 94 -5 18 -13 38 -18 43 -6 6 -88
14 -184 19 -95 5 -217 13 -272 19 -54 5 -133 10 -175 10 -42 0 -130 4 -196 10
-148 12 -406 29 -625 40 -91 5 -271 16 -400 25 -129 9 -307 20 -395 25 -451
25 -700 42 -719 50 -22 8 -32 25 -59 95 -8 22 -27 72 -42 110 -15 39 -38 99
-52 135 -13 36 -35 91 -48 123 -13 32 -21 65 -18 73 4 12 227 14 1651 16
l1646 3 12 75 c7 41 16 104 19 140 3 36 10 99 15 140 13 108 39 331 50 430 5
47 17 146 25 220 9 74 20 171 25 215 8 72 24 203 50 430 6 44 17 141 25 215 9
74 20 169 25 210 6 41 10 90 10 108 l0 32 -212 -2 -213 -3 -17 -125 c-9 -69
-22 -170 -28 -225 -6 -55 -18 -158 -26 -230 -8 -71 -19 -166 -24 -210 -6 -44
-17 -138 -25 -210 -9 -71 -20 -168 -25 -215 -23 -204 -42 -360 -51 -422 -5
-37 -9 -80 -9 -97 0 -66 126 -61 -1551 -61 -983 0 -1527 3 -1539 10 -10 5 -26
31 -36 57 -9 27 -21 52 -26 58 -4 5 -8 17 -8 27 0 10 -4 26 -10 36 -11 20 -32
72 -50 122 -7 19 -18 49 -25 65 -13 31 -42 105 -55 140 -4 11 -15 40 -25 65
-10 25 -21 54 -25 65 -14 36 -42 109 -55 140 -7 17 -21 55 -33 85 -110 290
-199 521 -222 575 -4 11 -14 36 -20 55 -7 19 -19 49 -25 65 -7 17 -18 46 -25
65 -7 19 -18 49 -25 65 -13 31 -42 105 -55 140 -4 11 -15 40 -25 65 -10 25
-21 54 -25 65 -13 35 -42 109 -55 140 -7 17 -18 46 -25 65 -7 19 -18 49 -25
65 -7 17 -38 98 -70 180 -31 83 -61 158 -66 168 -9 16 -46 17 -560 17 -434 0
-551 -3 -554 -13z"/>
<path d="M2963 4997 c-58 -58 -103 -111 -103 -122 0 -12 97 -116 245 -265 208
-208 245 -250 245 -275 0 -24 -38 -66 -245 -275 -149 -150 -245 -254 -245
-265 0 -27 202 -225 229 -225 15 0 94 72 249 226 254 253 266 264 295 264 13
0 107 -86 267 -245 173 -171 254 -245 269 -245 14 0 57 34 122 97 83 81 99
101 99 127 0 27 -30 61 -240 271 -207 207 -240 244 -240 270 0 26 33 63 240
270 208 208 240 244 240 270 0 25 -17 47 -98 128 -70 69 -104 97 -122 97 -18
0 -84 -59 -270 -245 -187 -186 -251 -245 -270 -245 -19 0 -83 59 -270 245
-185 184 -252 245 -270 245 -17 0 -53 -30 -127 -103z"/>
<path d="M2045 952 c-83 -25 -132 -53 -194 -108 -120 -108 -172 -301 -121
-449 68 -197 228 -315 425 -314 123 0 226 41 310 124 138 134 172 341 86 517
-87 180 -320 286 -506 230z"/>
<path d="M5270 851 c-76 -24 -115 -46 -165 -93 -55 -50 -98 -133 -115 -221
-24 -118 16 -249 102 -337 194 -197 521 -144 642 105 24 49 30 76 34 150 4 80
1 97 -22 154 -53 132 -136 205 -275 245 -70 20 -132 19 -201 -3z"/>
</g>
</svg>
