<?xml version="1.0" standalone="no"?>
<!DOCTYPE svg PUBLIC "-//W3C//DTD SVG 20010904//EN"
 "http://www.w3.org/TR/2001/REC-SVG-20010904/DTD/svg10.dtd">
<svg version="1.0" xmlns="http://www.w3.org/2000/svg"
 width="562.000000pt" height="462.000000pt" viewBox="0 0 562.000000 462.000000"
 preserveAspectRatio="xMidYMid meet">

<g transform="translate(0.000000,462.000000) scale(0.100000,-0.100000)"
fill="#000000" stroke="none">
<path d="M603 4321 c-99 -34 -170 -99 -216 -198 l-22 -48 0 -1335 0 -1335 27
-57 c34 -73 103 -142 176 -176 l57 -27 748 -3 747 -3 -6 -42 c-21 -160 -66
-257 -176 -384 l-41 -48 -238 -5 c-220 -5 -240 -7 -265 -26 -53 -39 -69 -71
-69 -134 0 -63 16 -95 69 -134 27 -21 30 -21 1366 -21 1336 0 1339 0 1366 21
53 39 69 71 69 134 0 63 -16 95 -69 134 -25 19 -45 21 -265 26 l-238 5 -41 48
c-110 127 -155 224 -176 384 l-6 42 748 3 747 3 67 33 c77 37 128 90 167 172
l26 55 0 1335 0 1335 -27 57 c-34 73 -103 142 -176 176 l-57 27 -2120 2
c-2020 2 -2122 2 -2172 -16z m4225 -313 c17 -17 17 -2519 0 -2536 -17 -17
-4119 -17 -4136 0 -17 17 -17 2519 0 2536 17 17 4119 17 4136 0z m-1739 -2975
c13 -118 46 -229 92 -310 16 -29 29 -55 29 -58 0 -3 -202 -5 -450 -5 -247 0
-450 2 -450 5 0 3 13 29 29 58 46 81 79 192 92 310 l12 107 317 0 317 0 12
-107z"/>
<path d="M1575 3526 c-41 -18 -83 -69 -91 -111 -13 -71 2 -104 89 -192 l81
-83 -81 -83 c-87 -89 -102 -121 -88 -194 9 -49 69 -109 118 -118 73 -14 105 1
194 88 l83 81 83 -81 c89 -87 121 -102 194 -88 49 9 109 69 118 118 14 73 -1
105 -88 194 l-81 83 81 83 c87 89 102 121 88 194 -9 49 -69 109 -118 118 -73
14 -105 -1 -194 -88 l-83 -81 -78 76 c-99 99 -150 118 -227 84z"/>
<path d="M3335 3526 c-41 -18 -83 -69 -91 -111 -13 -71 2 -104 89 -192 l81
-83 -81 -83 c-87 -89 -102 -121 -88 -194 9 -49 69 -109 118 -118 73 -14 105 1
194 88 l83 81 83 -81 c89 -87 121 -102 194 -88 49 9 109 69 118 118 14 73 -1
105 -88 194 l-81 83 81 83 c87 89 102 121 88 194 -9 49 -69 109 -118 118 -73
14 -105 -1 -194 -88 l-83 -81 -78 76 c-99 99 -150 118 -227 84z"/>
<path d="M2055 2406 c-94 -41 -124 -168 -58 -247 34 -40 300 -173 380 -189 81
-17 155 -2 281 59 l102 50 103 -50 c125 -61 199 -76 280 -59 80 16 346 149
380 189 86 103 9 261 -126 261 -23 0 -84 -25 -176 -70 l-141 -69 -100 49
c-182 88 -256 89 -438 1 l-102 -50 -141 69 c-149 74 -185 82 -244 56z"/>
</g>
</svg>
