<?xml version="1.0" standalone="no"?>
<!DOCTYPE svg PUBLIC "-//W3C//DTD SVG 20010904//EN"
 "http://www.w3.org/TR/2001/REC-SVG-20010904/DTD/svg10.dtd">
<svg version="1.0" xmlns="http://www.w3.org/2000/svg"
 width="521.000000pt" height="518.000000pt" viewBox="0 0 521.000000 518.000000"
 preserveAspectRatio="xMidYMid meet">

<g transform="translate(0.000000,518.000000) scale(0.100000,-0.100000)"
fill="#000000" stroke="none">
<path d="M1952 5139 c-306 -29 -634 -142 -912 -315 -681 -421 -1069 -1227
-975 -2026 72 -617 394 -1152 910 -1510 604 -419 1414 -484 2083 -167 67 32
149 74 181 93 l59 36 531 -530 c319 -319 554 -545 587 -566 225 -144 532 -59
649 180 56 113 67 203 39 314 -32 126 -51 148 -620 719 l-534 536 35 56 c277
457 364 1040 235 1574 -124 515 -456 982 -905 1277 -186 121 -470 240 -693
290 -203 45 -458 60 -670 39z m518 -213 c589 -101 1069 -437 1366 -956 345
-602 323 -1371 -55 -1965 -49 -76 -56 -95 -51 -140 1 -12 241 -260 570 -590
395 -397 575 -584 590 -615 13 -25 25 -71 28 -106 8 -108 -50 -203 -157 -252
-44 -20 -64 -24 -115 -20 -35 3 -81 15 -106 28 -31 15 -218 195 -615 590 -330
329 -578 569 -590 570 -45 5 -64 -2 -140 -51 -96 -61 -292 -156 -395 -192
-221 -76 -372 -101 -625 -102 -212 0 -299 9 -470 52 -682 168 -1222 703 -1394
1380 -55 216 -73 532 -43 738 98 657 494 1197 1081 1473 175 81 373 140 546
161 50 6 101 13 115 15 52 9 378 -4 460 -18z"/>
<path d="M2037 4556 c-33 -31 -43 -68 -27 -107 17 -39 46 -59 90 -59 44 0 73
20 90 59 37 90 -81 173 -153 107z"/>
<path d="M2425 4515 c-18 -17 -25 -35 -25 -64 0 -63 29 -88 135 -117 111 -31
285 -113 391 -185 105 -71 258 -220 334 -327 188 -264 270 -560 248 -892 -13
-187 -61 -354 -153 -526 -69 -131 -116 -196 -224 -307 -107 -110 -203 -183
-336 -253 -228 -121 -463 -170 -730 -153 -659 43 -1201 585 -1244 1244 -26
406 107 764 388 1046 152 151 280 235 482 319 42 17 83 39 92 48 55 63 8 162
-76 162 -33 0 -184 -62 -282 -115 -121 -66 -214 -135 -326 -242 -315 -303
-479 -685 -479 -1118 0 -416 152 -787 443 -1084 541 -552 1414 -617 2034 -152
626 471 798 1349 396 2029 -189 320 -499 567 -856 681 -121 39 -178 40 -212 6z"/>
<path d="M1591 3646 c-29 -16 -50 -52 -51 -86 0 -32 20 -61 95 -137 33 -33
134 -135 225 -227 l164 -167 -237 -237 c-254 -254 -264 -269 -233 -330 18 -35
70 -56 111 -46 16 4 77 56 144 122 64 63 170 168 237 234 l121 118 236 -234
c196 -196 241 -236 271 -241 65 -13 124 46 111 111 -5 30 -45 75 -241 271
l-234 236 118 121 c66 67 171 173 234 237 66 67 118 128 122 144 10 41 -11 93
-46 111 -61 31 -76 21 -330 -233 l-237 -237 -167 164 c-92 91 -194 192 -227
225 -99 98 -131 111 -186 81z"/>
</g>
</svg>
